<svg  viewBox="0 -75 496 495" width="15" height="15" xmlns="http://www.w3.org/2000/svg"><path d="m128 16.5h344c8.835938 0 16 7.164062 16 16v176c0 8.835938-7.164062 16-16 16h-344c-8.835938 0-16-7.164062-16-16v-176c0-8.835938 7.164062-16 16-16zm0 0" fill="#acabb1"/><path d="m368 296.5h-248.632812l.335937 48-47.703125-48h-48c-8.835938 0-16-7.164062-16-16v-176c0-8.835938 7.164062-16 16-16h344c8.835938 0 16 7.164062 16 16v176c0 8.835938-7.164062 16-16 16zm0 0" fill="#cbcbcb"/><path d="m472 .5h-344c-13.238281.039062-23.960938 10.761719-24 24v48h-80c-13.238281.039062-23.9609375 10.761719-24 24v176c.0390625 13.238281 10.761719 23.960938 24 24h44.640625l45.359375 45.679688c1.519531 1.480468 3.558594 2.3125 5.679688 2.320312 1.070312-.019531 2.128906-.238281 3.121093-.640625 3.007813-1.230469 4.949219-4.1875 4.878907-7.4375l-.238282-39.921875h240.558594c13.238281-.039062 23.960938-10.761719 24-24v-48h80c13.238281-.039062 23.960938-10.761719 24-24v-176c-.039062-13.238281-10.761719-23.960938-24-24zm-96 272c0 4.417969-3.582031 8-8 8h-248.640625c-2.136719.007812-4.183594.875-5.679687 2.398438-1.519532 1.496093-2.355469 3.550781-2.320313 5.679687l.242187 28.402344-33.921874-34.160157c-1.523438-1.472656-3.558594-2.304687-5.679688-2.320312h-48c-4.417969 0-8-3.582031-8-8v-176c0-4.417969 3.582031-8 8-8h344c4.417969 0 8 3.582031 8 8zm104-72c0 4.417969-3.582031 8-8 8h-80v-112c-.039062-13.238281-10.761719-23.960938-24-24h-248v-48c0-4.417969 3.582031-8 8-8h344c4.417969 0 8 3.582031 8 8zm0 0" fill="#cbcbcb"/></svg>